Indiana Jones 3 Last Crusade (1989)       

 
Verenigde Staten
Actie / Avontuur
127 minuten

geregisseerd door Steven Spielberg
met Harrison Ford, Sean Connery en Denholm Elliott

Al sedert 1912 zit Indiana Jones een bende achterna die een kostbaar kruis hebben gestolen. Nu het hem uiteindelijk gelukt is het juweel te bemachtigen en aan historicus Brody te overhandigen, kan hij opnieuw zijn baan als leraar oppikken. Op een dag wordt hij na schooltijd opgepikt en meegenomen naar de rijke Donovan. Deze bezit een steen, waarop een soort beschrijving staat die naar de Heilige Graal moet leiden. In het bezit van de notities van zijn vader, reist Jones naar Venetië. Met de hulp van dokter Elsa Schneider vindt hij de ontbrekende schakel voor de locatie van de Graal. Eindelijk kan hij samen met zijn vader naar Afrika vertrekken, maar hij is natuurlijk niet de enige die de waardevolle Graal op de kop wil tikken...
  
English

Storyline
Three years after he recovered The Ark of the Covenant. Jones recovered an artifact that he found as a kid, the Cross of Francisco De Coronado from treasure hunters. Now, Jones discovers the history of another biblical artifact called "The Holy Grail". He was also informed that his father, Henry Jones is missing. Jones has to find his father who is looking for the Grail. However, Jones will become involved in the search of the Holy Grail along with his father, as well as fighting the Nazis to reach it.



Spotinformatie 
Categorie ...: Beeld 
Formaat .....: DivX 
Bron ........: Retail
Audio .......: English
Subs ........: Nederlands (SRT)(instelbaar)
Thanks...... : cjdijk 


Format                           : AVI
Format/Info                      : Audio Video Interleave
File size                        : 700 MiB
Duration                         : 59mn 33s
Overall bit rate                 : 1 642 Kbps
Writing application              : VirtualDubMod 1.5.4.1 (build 2178/release)
Writing library                  : VirtualDubMod build 2178/release

Video
ID                               : 0
Format                           : MPEG-4 Visual
Format profile                   : Simple@L3
Format settings, BVOP            : Yes
Format settings, QPel            : No
Format settings, GMC             : No warppoints
Format settings, Matrix          : Custom
Codec ID                         : XVID
Codec ID/Hint                    : XviD
Duration                         : 59mn 33s
Bit rate                         : 1 187 Kbps
Width                            : 720 pixels
Height                           : 304 pixels
Display aspect ratio             : 2.35
Frame rate                       : 25.000 fps
Resolution                       : 24 bits
Colorimetry                      : 4:2:0
Scan type                        : Progressive
Bits/(Pixel*Frame)               : 0.217
Stream size                      : 506 MiB (72%)
Writing library                  : XviD 0.0.09 (UTC 2003-03-25)

Audio
ID                               : 1
Format                           : AC-3
Format/Info                      : Audio Coding 3
Codec ID                         : 2000
Duration                         : 59mn 33s
Bit rate mode                    : Constant
Bit rate                         : 448 Kbps
Channel(s)                       : 6 channels
Channel positions                : Front: L C R, Surround: L R, LFE
Sampling rate                    : 48.0 KHz
Video delay                      : 8ms
Stream size                      : 191 MiB (27%)
Alignment                        : Split accross interleaves
Interleave, duration             : 96 ms (2.40 video frames)
Interleave, preload duration     : 96 ms
Language                         : English / English

 
Genre : Actie
Avontuur


Weblink :  http://www.moviemeter.nl/film/319 
Weblink :  http://www.imdb.com/title/tt0097576/

*****************************************

Brought to you by 
2Lions Team

meer zien??
Kom dan eens kijken op ons Forum 
                   
http://www.2lions-site.nl  

2Lions the site to be for all your Dutch MOVIES and more

******************************************


DON T HIT AND RUN Niet gelijk afhaken als de FILM binnen is blijf seeden. 

Don`t quit after you finished the download, but keep seeding


There are fake torrents from uploaders who use our team name.
Those are not ours, or members from our team.
We 2Lions-Team are not responsible for the fake posts on our name

Wij 2Lions-Team zijn niet verantwoordelijk voor die zieke FAKE posten die op onze naam worden gedaan

Please check our site !!!
To the fakers Get a Live
 
 
 
 
 
      

 
 
 
